<?xml version="1.0" encoding="utf-8"?>
<!-- Generator: Adobe Illustrator 27.5.0, SVG Export Plug-In . SVG Version: 6.00 Build 0)  -->
<svg version="1.1" id="Capa_1" xmlns="http://www.w3.org/2000/svg" xmlns:xlink="http://www.w3.org/1999/xlink" x="0px" y="0px"
	 viewBox="0 0 512 512" style="enable-background:new 0 0 512 512;" xml:space="preserve">
<style type="text/css">
	.st0{fill:#FFFFFF;}
</style>
<g>
	<path class="st0" d="M467,151.1h-31.4C408.9,87.6,350,41.5,282.3,32.7c-67.1-9-133.1,16.9-176.2,68.9
		c-12.7,15.3-22.7,31.9-30.1,49.5H45c-24.8,0-45,20.2-45,45v60c0,24.8,20.2,45,45,45h61.6l-6.4-19.7c-18.8-57.3-8.2-115.9,29-160.6
		c36.5-44,92.3-65.8,149.3-58.3c60.2,7.8,112.5,50.5,133.3,108.6l0.1,0.3c3.3,8.9,5.7,18,7,27.4c4.5,28.1,1.9,56.5-7.4,82.2
		l-0.1,0.2c-23.2,65.8-85.5,109.9-155,109.9c-25,0-45.3,20.2-45.3,45s20.2,45,45,45s45-20.2,45-45v-20.2
		c59.9-14.2,110.2-56.7,134.4-114.8H467c24.8,0,45-20.2,45-45v-60C512,171.2,491.8,151.1,467,151.1z"/>
	<path class="st0" d="M121,331.1v30h135c74.4,0,135-60.6,135-135s-60.6-135-135-135s-135,60.6-135,135c0,30.4,10.2,59.7,28.8,83.4
		C146.2,322.1,134.7,331.1,121,331.1L121,331.1z M301,211.1h30v30h-30V211.1z M241,211.1h30v30h-30V211.1z M181,211.1h30v30h-30
		V211.1z"/>
</g>
</svg>
