<?xml version="1.0" encoding="UTF-8"?>
<svg id="Layer_2" data-name="Layer 2" xmlns="http://www.w3.org/2000/svg" viewBox="0 0 216.81 292.17">
  <defs>
    <style>
      .cls-1 {
        fill: #df6969;
      }

      .cls-2 {
        fill: #fff;
      }

      .cls-3 {
        fill: #a5a5a5;
      }

      .cls-4 {
        fill: #e2e2e2;
      }

      .cls-5 {
        fill: #561515;
      }

      .cls-6 {
        fill: #111;
      }

      .cls-7 {
        fill: #a52927;
      }

      .cls-8 {
        fill: #e5e5e5;
      }

      .cls-9 {
        fill: #ffa485;
      }
    </style>
  </defs>
  <g id="OBJECTS">
    <g>
      <g>
        <g>
          <path class="cls-7" d="m164.66,231.08l24.36-11.93-19.98-36.18,14.81-3.22-29.15-47.54v.25c-6.69-9.15-17.5-15.07-29.65-15.07h-50.21l.12-1.52-19.62.21c-18.26.35-34.71,12.17-39.76,29.72-.2.71-.39,1.42-.56,2.15l-11.31,62.22,33.66-2.74-6.59,84.37h136.16l-2.28-60.71h0Z"/>
          <path class="cls-5" d="m165.18,245.6c-.25,0-.46-.18-.49-.43l-12.49-89.76c-.04-.27.15-.53.43-.56.27-.04.53.15.56.43l12.49,89.76c.04.27-.15.53-.43.56-.02,0-.05,0-.07,0Z"/>
        </g>
        <g>
          <rect class="cls-6" x="54.03" y="106.23" width="59.49" height="14.34" rx="7.17" ry="7.17"/>
          <path class="cls-6" d="m106.35,121.06h-45.15c-4.23,0-7.67-3.44-7.67-7.67s3.44-7.67,7.67-7.67h45.15c4.23,0,7.67,3.44,7.67,7.67s-3.44,7.67-7.67,7.67Zm-45.15-14.34c-3.68,0-6.67,2.99-6.67,6.67s2.99,6.67,6.67,6.67h45.15c3.68,0,6.67-2.99,6.67-6.67s-2.99-6.67-6.67-6.67h-45.15Z"/>
        </g>
        <polygon class="cls-6" points="124.69 133.59 136.56 292.17 73.71 291.79 81.51 135.48 73.33 126.73 124.69 133.59"/>
      </g>
      <g>
        <rect class="cls-6" x="154.7" y="160.91" width="34.32" height="54.61" rx="5.62" ry="5.62"/>
        <g>
          <g>
            <path class="cls-4" d="m166.9,188.46c-3.15-.06-6.29.72-6.11,4.65-.35,3.56,2.7,4.48,5.89,4.78-2.01.11-3.71.82-3.85,3.2-.75,4.24,3,5.76,6.49,6.01-3.36.76-1.38,6.2,2.89,7.66,3.79,1.51,7.71,2.88,11.41,4.58,3.72,1.71,7.38,3.36,11.41,4.23,4.37.94,8.98,1.01,13.25-.27,2.74-.82,5.43-2.3,6.97-4.71,2.8-4.37,1.22-10.57-.29-15.14-1.6-4.86-4.15-9.58-7.87-13.15,0,0-13.23-12.69-18.48-16.11-.56-.37-1.15-.73-1.8-.88-.65-.16-1.4-.08-1.91.36-.66.57-.76,1.55-.7,2.43.17,2.71,1.29,5.23,2.41,7.72-2.27-.68-4.69-1.42-7.32-2.27-5.68-1.39-14.78-4.83-16.16,2.72-.26,2.66,1.6,3.76,3.76,4.22Z"/>
            <path class="cls-3" d="m186.63,183.8l12.37,4.9s-11.88-8.82-14.19-9.5l1.82,4.6Z"/>
          </g>
          <path class="cls-1" d="m174.47,191.06s-.1,0-.15-.02c-2.97-.92-7.72-2.3-8.62-2.32-.28,0-.5-.24-.49-.51,0-.28.27-.48.51-.49,1.32.03,8.12,2.13,8.89,2.37.26.08.41.36.33.63-.07.21-.26.35-.48.35Z"/>
          <path class="cls-1" d="m172.95,200.32s-.09,0-.14-.02l-6.93-2.02c-.27-.08-.42-.36-.34-.62.08-.26.35-.42.62-.34l6.93,2.02c.27.08.42.36.34.62-.06.22-.26.36-.48.36Z"/>
          <path class="cls-1" d="m173.08,208.61s-.09,0-.13-.02l-3.76-1c-.27-.07-.43-.35-.35-.61.07-.27.34-.42.61-.35l3.76,1c.27.07.43.35.35.61-.06.22-.26.37-.48.37Z"/>
        </g>
        <g>
          <g>
            <path class="cls-2" d="m181.21,181.09c-1.83-8.56-12.1-4.33-18.54-2.56-2.98,1.06-5.72,1.99-8.28,2.84,1.19-2.88,2.39-5.8,2.49-8.89.03-1-.11-2.12-.88-2.75-.6-.48-1.45-.55-2.19-.35-.74.2-1.39.63-2.02,1.07-5.88,4.07-20.56,19.01-20.56,19.01-8.62,10.6-13.03,26.21-7.89,34.01.45.69,1.14,1.18,1.93,1.41,3.76,1.14,15.49,5,20.97,2.46l25.65-11.12c4.82-1.81,6.9-8.09,3.04-8.84,3.98-.4,8.2-2.26,7.21-7.08-.24-2.72-2.21-3.47-4.51-3.53,3.63-.46,7.08-1.6,6.56-5.66.07-4.48-3.53-5.27-7.13-5.1,2.45-.6,4.53-1.91,4.15-4.94Z"/>
            <path class="cls-4" d="m154.39,181.38l-13.96,6.01s13.26-10.47,15.88-11.32l-1.93,5.32Z"/>
          </g>
          <path class="cls-3" d="m168.49,189.18c-.21,0-.4-.13-.47-.34-.09-.26.05-.55.31-.63.87-.3,8.55-2.92,10.05-3,.31-.02.51.2.53.47.01.28-.2.51-.47.53-1.15.06-7.45,2.15-9.78,2.95-.05.02-.11.03-.16.03Z"/>
          <path class="cls-3" d="m170.54,199.7c-.21,0-.41-.13-.48-.35-.08-.26.06-.55.32-.63l7.84-2.54c.27-.08.54.06.63.32.08.26-.06.55-.32.63l-7.84,2.54c-.05.02-.1.02-.15.02Z"/>
          <path class="cls-3" d="m170.67,209.17c-.22,0-.41-.14-.48-.36-.08-.26.07-.54.34-.62l4.25-1.27c.27-.08.54.07.62.34.08.26-.07.54-.34.62l-4.25,1.27s-.1.02-.14.02Z"/>
        </g>
        <path class="cls-7" d="m60.9,204.58l1.72,4.87,51.43-14.52,6.09-1.72c1.73-.49,3.55.4,4.23,2.07l13.83,33.91c.92,2.25-.19,4.81-2.45,5.69l-59.95,23.27-23.32,9.06c-6.98,1.93-13.71,2.43-19.89,1.73C13.19,266.73-.78,252.81.03,234.68l4.23-28.24,56.63-1.86Z"/>
        <g>
          <path class="cls-5" d="m120.5,215.29c-.21,0-.4-.13-.47-.34l-6.51-19.45c-.09-.26.05-.55.31-.63.26-.09.55.05.63.31l6.51,19.45c.09.26-.05.55-.31.63-.05.02-.11.03-.16.03Z"/>
          <path class="cls-5" d="m130.89,229.64c-1.22,0-2.2-.99-2.2-2.2s.99-2.2,2.2-2.2,2.2.99,2.2,2.2-.99,2.2-2.2,2.2Zm0-3.41c-.66,0-1.2.54-1.2,1.2s.54,1.2,1.2,1.2,1.2-.54,1.2-1.2-.54-1.2-1.2-1.2Z"/>
          <path class="cls-5" d="m40,216.02c-.22,0-.42-.15-.48-.37-.07-.27.08-.54.35-.62.41-.11,40.9-11.24,41.38-11.37.27-.08.54.08.62.34.08.27-.08.54-.34.62-.48.14-39.72,10.92-41.39,11.38-.04.01-.09.02-.13.02Z"/>
          <path class="cls-5" d="m54.03,212.19h-.02c-.28-.01-.49-.25-.48-.52l1.58-38.47c.01-.28.24-.48.52-.48.28.01.49.25.48.52l-1.58,38.47c-.01.27-.23.48-.5.48Z"/>
          <path class="cls-5" d="m130.89,237.25c-.2,0-.39-.12-.47-.32-.1-.26.03-.55.29-.65l5.31-2.03c.84-.32,1.5-.95,1.86-1.78.36-.83.37-1.74.04-2.58l-1.83-4.54c-.1-.26.02-.55.28-.65.25-.1.55.02.65.28l1.83,4.54c.44,1.09.42,2.28-.05,3.35-.47,1.07-1.33,1.89-2.42,2.31l-5.31,2.03c-.06.02-.12.03-.18.03Z"/>
        </g>
        <path class="cls-5" d="m38.52,269.84c-2.01,0-4.02-.14-6.01-.42-.27-.04-.46-.29-.42-.57.04-.27.29-.46.57-.42,7.04,1,14.28.18,20.92-2.36l25.78-9.84c.26-.1.55.03.65.29.1.26-.03.55-.29.65l-25.78,9.84c-4.92,1.88-10.16,2.84-15.41,2.84Z"/>
      </g>
      <g>
        <path class="cls-6" d="m154.88,17.72l-4.11.76c-.52.1-.99-.33-.94-.85l.42-5.27c.22-2.73-2.56-4.73-5.07-3.62-1.98.88-4.29,1.79-6.57,2.44-2.36-3.83-6.57-6.39-11.4-6.39h0c-.41,0-.82.02-1.23.06-3.65-3.03-8.34-4.85-13.46-4.85h-8.21c-10.03,0-18.29,7.48-19.56,17.16-.15.04-.31.08-.46.13-6.26,2.08-9.61,8.91-8.12,15.34l3.17,13.68c.69-.08,1.4-.1,2.11-.04l6.81.55,6.91.55,1.41-17.56h6.89c4.56,5.13,14.13,12.15,31.69,10.59,4.11-.37,7.59-1.18,10.53-2.29,8.61-3.23,12.68-9.02,14.6-13.81,1.42-3.55-1.64-7.27-5.4-6.58Z"/>
        <g>
          <path class="cls-2" d="m100.31,25.43c-.2-.36-.62-.5-1-.35-.58.24-1.48.57-2.42.8l-1.72,21.48-6.91-.55-6.81-.55c-.72-.06-1.42-.04-2.11.04-5.03.59-9.15,4.68-9.57,9.91l-.21,2.61c-.48,5.95,4,11.21,9.95,11.68l3.83.31-6.39,39.65c-1.69,10.49,5.44,20.37,15.94,22.06l4.59.74c10.49,1.69,20.37-5.44,22.06-15.94l2.53-15.73.89.07c9.68.78,18.16-6.44,18.93-16.12l3.8-47.45c-2.95,1.11-6.42,1.92-10.53,2.29-24,2.14-33.09-11.78-34.84-14.96Z"/>
          <path class="cls-3" d="m79.6,62.43c-.18,0-.35-.09-.44-.26-.13-.24-.04-.55.2-.68l3.66-1.99-3.51-4.59c-.17-.22-.12-.53.09-.7.22-.17.53-.13.7.09l3.86,5.06c.09.12.12.26.09.41-.03.14-.12.27-.25.34l-4.17,2.27c-.08.04-.16.06-.24.06Z"/>
          <g>
            <path class="cls-3" d="m125.03,67.88c-.12,0-.24,0-.36-.01l-3.24-.26c-.28-.02-.48-.26-.46-.54.02-.28.27-.48.54-.46l3.24.26c1.01.09,2.01-.29,2.73-1.02.72-.73,1.07-1.73.98-2.75l-1.09-11.53c-.03-.27.18-.52.45-.54.26-.03.52.17.54.45l1.09,11.53c.12,1.31-.34,2.61-1.26,3.54-.84.85-1.98,1.33-3.17,1.33Z"/>
            <g>
              <path class="cls-6" d="m138.16,59c.13,1.3-.82,2.46-2.12,2.59-1.3.13-2.46-.82-2.59-2.12-.13-1.3.82-2.46,2.12-2.59,1.3-.13,2.46.82,2.59,2.12Z"/>
              <path class="cls-3" d="m120.91,89.06c-.11.02-.22,0-.33-.05-.1-.06-2.61-1.4-4.69.48-.2.18-.51.17-.69-.04-.18-.2-.17-.51.04-.69,2.62-2.36,5.8-.63,5.83-.61.24.13.32.43.19.67-.07.13-.2.22-.34.25Z"/>
              <g>
                <path class="cls-6" d="m104.19,48.08c1.2.41,2.69.15,4.14-.02,1.46-.2,2.93-.36,4.22-.46,1.29-.1,2.77-.16,4.24-.19,1.46-.06,2.98-.03,4.09-.62,1.07-.55,1.41-1.92-.02-3.47-1.35-1.51-4.7-3-8.96-2.68-4.25.34-7.28,2.32-8.34,4.01-1.13,1.74-.54,3.04.62,3.42Z"/>
                <path class="cls-6" d="m144.28,51.44c-.87.18-1.85-.19-2.82-.48-.97-.32-1.94-.62-2.8-.84-.86-.22-1.86-.44-2.86-.63-.99-.21-2.03-.36-2.69-.94-.65-.55-.69-1.65.51-2.68,1.13-1.01,3.62-1.79,6.48-1.06,2.85.74,4.62,2.62,5.1,4.05.52,1.48-.07,2.41-.91,2.58Z"/>
              </g>
              <path class="cls-6" d="m117.59,58.17c-.22,1.41-1.54,2.38-2.95,2.15-1.41-.22-2.38-1.54-2.15-2.95.22-1.41,1.54-2.38,2.95-2.15,1.41.22,2.38,1.54,2.16,2.95Z"/>
              <g>
                <path class="cls-9" d="m112.16,60.26s2.43-1.47,4.51.68"/>
                <path class="cls-3" d="m116.67,61.44c-.13,0-.26-.05-.36-.15-1.78-1.84-3.8-.65-3.89-.6-.24.14-.54.07-.69-.17-.14-.24-.07-.54.17-.69.96-.58,3.26-1.17,5.13.76.19.2.19.52-.01.71-.1.09-.22.14-.35.14Z"/>
              </g>
              <g>
                <path class="cls-9" d="m133.76,61.83s2.16-.77,4,.36"/>
                <path class="cls-3" d="m137.76,62.69c-.09,0-.18-.02-.26-.07-1.61-.99-3.56-.32-3.58-.32-.26.09-.54-.05-.64-.31-.09-.26.04-.54.3-.64.1-.03,2.41-.83,4.43.41.24.14.31.45.17.69-.09.15-.26.24-.43.24Z"/>
              </g>
            </g>
            <path class="cls-4" d="m109.44,68.01c.84-.47,1.9-.25,2.56.45,1.2,1.29,3.84,3.61,7.84,4.35.98.18,1.4,1.37.9,2.24-1.09,1.9-3.84,4.75-8.85,1.89-6.11-3.48-4.65-7.71-2.45-8.93Z"/>
            <path class="cls-4" d="m121.94,101.68s-21.17-.33-25.69-9.28c0,0,1.4,18.92,23.8,20.99l1.89-11.71Z"/>
          </g>
        </g>
        <g>
          <g>
            <g>
              <path class="cls-6" d="m128.44,114.22l5.04,12.94c.59,1.53.29,3.24-.8,4.49l-13.05,14.93c-.92,1.68-2.95,1.8-4,.23l-11.26-13.91,19.8-20.71c1.58-1.68,4.09-.49,4.28,2.02Z"/>
              <path class="cls-6" d="m117.54,148.43c-.92,0-1.77-.48-2.34-1.33l-11.24-13.87c-.16-.2-.15-.48.03-.66l19.8-20.71c.81-.86,1.92-1.15,2.97-.78,1.19.42,2.03,1.6,2.16,3.03l5.01,12.88c.66,1.7.32,3.62-.89,5l-13.02,14.89c-.53.93-1.41,1.5-2.37,1.55-.04,0-.08,0-.12,0Zm-12.52-15.49l10.99,13.56c.42.63,1.01.95,1.61.92.63-.03,1.2-.42,1.56-1.08.02-.03.04-.06.06-.09l13.05-14.93c.97-1.1,1.24-2.63.71-3.98l-5.04-12.94s-.03-.09-.03-.14c-.08-1.06-.67-1.94-1.51-2.24-.68-.24-1.37-.05-1.91.52l-19.5,20.39Z"/>
            </g>
            <g>
              <path class="cls-6" d="m77.73,109.16l29.17,23.85-17.2,16.91c-1.74,1.48-4.63,1.28-6.06-.42l-16.09-19.11c-1.17-1.39-1.41-3.34-.61-4.97l7.66-15.7c.52-1.07,2.15-1.36,3.13-.55Z"/>
              <path class="cls-6" d="m86.88,151.42c-.14,0-.29,0-.43-.02-1.28-.11-2.44-.68-3.2-1.58l-16.09-19.11c-1.3-1.54-1.56-3.7-.68-5.51l7.66-15.7c.3-.62.91-1.07,1.65-1.23.81-.17,1.64.02,2.25.52l29.17,23.85c.11.09.18.22.18.36,0,.14-.05.28-.15.38l-17.2,16.91c-.87.74-2,1.14-3.17,1.14Zm-10.49-42.22c-.12,0-.25.01-.38.04-.44.1-.8.35-.96.7l-7.66,15.7c-.71,1.45-.49,3.19.55,4.43l16.09,19.11c.58.7,1.5,1.14,2.51,1.23,1.06.09,2.1-.23,2.84-.86l16.78-16.49-28.74-23.5s0,0,0,0c-.28-.23-.64-.35-1.02-.35Z"/>
            </g>
          </g>
          <path class="cls-8" d="m87.1,152.02c-.1,0-.2,0-.31,0-1.43-.09-2.77-.77-3.68-1.89l-10.93-13.46c-.17-.21-.14-.53.07-.7.21-.17.53-.14.7.07l10.93,13.46c.74.91,1.79,1.45,2.96,1.52,1.17.06,2.28-.34,3.12-1.15l14.41-13.93c.44-.42,1.04-.63,1.64-.58.6.05,1.15.36,1.51.85l7.8,10.72c.56.76,1.42,1.21,2.36,1.24.97,0,1.82-.39,2.42-1.12l4.78-5.93c.17-.22.49-.25.7-.08.21.17.25.49.08.7l-4.78,5.93c-.79.98-1.96,1.53-3.22,1.49-1.26-.03-2.4-.63-3.14-1.65l-7.8-10.72c-.19-.26-.47-.42-.79-.45-.31-.03-.63.08-.85.3l-14.41,13.93c-.96.93-2.25,1.44-3.57,1.44Z"/>
          <path class="cls-8" d="m87.23,147.24c-1.48,0-2.68-1.2-2.68-2.68s1.2-2.68,2.68-2.68,2.68,1.2,2.68,2.68-1.2,2.68-2.68,2.68Zm0-4.37c-.93,0-1.68.76-1.68,1.68s.76,1.68,1.68,1.68,1.68-.76,1.68-1.68-.76-1.68-1.68-1.68Z"/>
          <path class="cls-8" d="m86.19,166.96c-.27,0-.49-.21-.5-.48,0-.28.21-.51.48-.52,1.73-.06,3.44-1.29,4.26-3.08.72-1.58.8-3.57.23-5.62-.54-1.92-1.56-3.7-2.58-5.33-1.15-1.82-2.71-4.32-1.9-6.76.24-.73.68-1.24,1.23-1.44.26-.1.55.04.64.3.1.26-.04.55-.29.64-.26.09-.48.39-.63.82-.66,1.99.7,4.16,1.8,5.91,1.07,1.7,2.13,3.55,2.7,5.6.63,2.27.53,4.51-.29,6.3-.97,2.12-3.03,3.6-5.14,3.66,0,0-.01,0-.02,0Z"/>
          <path class="cls-8" d="m118.86,146.29c-1.48,0-2.68-1.2-2.68-2.68s1.2-2.68,2.68-2.68,2.68,1.2,2.68,2.68-1.2,2.68-2.68,2.68Zm0-4.37c-.93,0-1.68.76-1.68,1.68s.76,1.68,1.68,1.68,1.68-.76,1.68-1.68-.76-1.68-1.68-1.68Z"/>
          <path class="cls-8" d="m117.82,175.02c-.27,0-.49-.21-.5-.48-.01-.28.2-.51.48-.52,1.71-.08,3.42-1.84,4.24-4.39.74-2.29.83-5.17.25-8.12-.54-2.74-1.58-5.25-2.61-7.57-1.12-2.51-2.66-5.94-1.88-9.22.16-.68.5-1.56,1.18-1.92.24-.13.55-.03.67.21.13.25.03.55-.21.67-.27.14-.52.61-.67,1.26-.7,2.94.7,6.07,1.82,8.58,1.06,2.37,2.12,4.95,2.68,7.78.62,3.11.52,6.18-.28,8.63-.96,2.94-3.02,4.99-5.15,5.08,0,0-.02,0-.02,0Z"/>
          <path class="cls-8" d="m76.59,130.39c-.12,0-.25-.05-.34-.14-2.08-1.97-4.07-4.07-5.92-6.25-.85-1-1.75-2.18-1.72-3.6.01-.63.22-1.22.42-1.73.71-1.85,4.85-9.63,6.11-11.33.17-.22.48-.27.7-.1.22.16.27.48.11.7-1.19,1.61-5.3,9.33-5.98,11.09-.17.45-.34.92-.35,1.39-.03,1.07.75,2.07,1.48,2.93,1.83,2.15,3.8,4.22,5.85,6.17.2.19.21.51.02.71-.1.1-.23.16-.36.16Z"/>
          <path class="cls-8" d="m81.13,111.92c-.1,0-.19-.03-.28-.09l-5.59-3.77c-.23-.15-.29-.47-.13-.69.15-.23.47-.29.69-.13l5.59,3.77c.23.15.29.47.13.69-.1.14-.25.22-.41.22Z"/>
          <path class="cls-8" d="m127.06,131.23c-.13,0-.27-.05-.36-.16-.19-.2-.18-.52.02-.71l5.22-4.92c.27-.25.54-.51.68-.81.28-.62-.03-1.41-.41-2.17-.82-1.66-1.74-3.28-2.73-4.84-.15-.23-.08-.54.15-.69.23-.15.54-.08.69.15,1.01,1.58,1.95,3.24,2.79,4.93.46.93.87,2.02.42,3.02-.21.48-.58.82-.9,1.13l-5.22,4.92c-.1.09-.22.14-.34.14Z"/>
        </g>
      </g>
    </g>
  </g>
</svg>