<?xml version="1.0" encoding="utf-8"?>
<!-- Generator: Adobe Illustrator 27.5.0, SVG Export Plug-In . SVG Version: 6.00 Build 0)  -->
<svg version="1.1" id="Layer_1" xmlns="http://www.w3.org/2000/svg" xmlns:xlink="http://www.w3.org/1999/xlink" x="0px" y="0px"
	 viewBox="0 0 512 512" style="enable-background:new 0 0 512 512;" xml:space="preserve">
<style type="text/css">
	.st0{fill:#FFFFFF;}
</style>
<g id="Layer_114">
	<path class="st0" d="M448,256c0.2,106-85.7,192.1-191.7,192.3S64.2,362.6,64,256.6c-0.2-106,85.7-192.1,191.7-192.3
		c39.5-0.1,78,12.1,110.4,34.7l-2.3-6.8c-3.8-11.5,2.5-23.9,14-27.6c11.5-3.8,23.9,2.5,27.6,14l21.3,64c2.1,6.5,1,13.7-3,19.2
		c-4.2,5.9-11.1,9.3-18.3,9h-64c-11.8,0-21.3-9.6-21.3-21.3c0.2-9.3,6.3-17.4,15.1-20.1c-69.9-43.7-162.1-22.5-205.8,47.5
		s-22.5,162.1,47.5,205.8s162.1,22.5,205.8-47.5c14.8-23.7,22.7-51.1,22.7-79.1c0-11.8,9.6-21.3,21.3-21.3
		C438.4,234.7,448,244.2,448,256z"/>
</g>
</svg>
