<?xml version="1.0" encoding="utf-8"?>
<!-- Generator: Adobe Illustrator 27.5.0, SVG Export Plug-In . SVG Version: 6.00 Build 0)  -->
<svg version="1.1" id="Capa_1" xmlns="http://www.w3.org/2000/svg" xmlns:xlink="http://www.w3.org/1999/xlink" x="0px" y="0px"
	 viewBox="0 0 512 512" style="enable-background:new 0 0 512 512;" xml:space="preserve">
<style type="text/css">
	.st0{fill:#FFFFFF;}
</style>
<g>
	<path class="st0" d="M64,96c-17.7,0-32,14.3-32,32v256c0,17.7,14.3,32,32,32s32-14.3,32-32V128C96,110.3,81.7,96,64,96z"/>
	<path class="st0" d="M160,160c-17.7,0-32,14.3-32,32v128c0,17.7,14.3,32,32,32s32-14.3,32-32V192C192,174.3,177.7,160,160,160z"/>
	<path class="st0" d="M256,0c-17.7,0-32,14.3-32,32v448c0,17.7,14.3,32,32,32s32-14.3,32-32V32C288,14.3,273.7,0,256,0z"/>
	<path class="st0" d="M352,80c-17.7,0-32,14.3-32,32v288c0,17.7,14.3,32,32,32s32-14.3,32-32V112C384,94.3,369.7,80,352,80z"/>
	<path class="st0" d="M448,160c-17.7,0-32,14.3-32,32v128c0,17.7,14.3,32,32,32s32-14.3,32-32V192C480,174.3,465.7,160,448,160z"/>
</g>
</svg>
