<?xml version="1.0" encoding="utf-8"?>
<!-- Generator: Adobe Illustrator 27.5.0, SVG Export Plug-In . SVG Version: 6.00 Build 0)  -->
<svg version="1.1" id="Capa_1" xmlns="http://www.w3.org/2000/svg" xmlns:xlink="http://www.w3.org/1999/xlink" x="0px" y="0px"
	 viewBox="0 0 512 512" style="enable-background:new 0 0 512 512;" xml:space="preserve">
<style type="text/css">
	.st0{fill:none;stroke:#FFFFFF;stroke-width:30;stroke-linecap:round;stroke-linejoin:round;stroke-miterlimit:10;}
</style>
<g>
	<polyline class="st0" points="79,200 119,104 159,200 	"/>
	<line class="st0" x1="95" y1="176" x2="143" y2="176"/>
	<path class="st0" d="M191,48H47c-17.7,0-32,14.3-32,32v144c0,17.7,14.3,32,32,32h144c17.7,0,32-14.3,32-32V80
		C223,62.3,208.7,48,191,48z"/>
	<path class="st0" d="M465,256H321c-17.7,0-32,14.3-32,32v144c0,17.7,14.3,32,32,32h144c17.7,0,32-14.3,32-32V288
		C497,270.3,482.7,256,465,256z"/>
	<path class="st0" d="M433,408L433,408c-22.1,0-40-17.9-40-40c0,22.1-17.9,40-40,40l0,0"/>
	<line class="st0" x1="361" y1="352" x2="425" y2="352"/>
	<line class="st0" x1="393" y1="368" x2="393" y2="312"/>
	<path class="st0" d="M304,136h56c17.7,0,32,14.3,32,32v32"/>
	<polyline class="st0" points="320,104 296,136 320,168 	"/>
	<path class="st0" d="M208,376h-56c-17.7,0-32-14.3-32-32v-32"/>
	<polyline class="st0" points="192,408 216,376 192,344 	"/>
</g>
</svg>
