<?xml version="1.0" encoding="utf-8"?>
<!-- Generator: Adobe Illustrator 27.5.0, SVG Export Plug-In . SVG Version: 6.00 Build 0)  -->
<svg version="1.1" id="Capa_1" xmlns="http://www.w3.org/2000/svg" xmlns:xlink="http://www.w3.org/1999/xlink" x="0px" y="0px"
	 viewBox="0 0 96.7 96.7" style="enable-background:new 0 0 96.7 96.7;" xml:space="preserve">
<style type="text/css">
	.st0{fill:#FFFFFF;}
</style>
<g>
	<g>
		<path class="st0" d="M48.3,73.3c9.5,0,17.3-7.7,17.3-17.3V17.3C65.6,7.7,57.9,0,48.3,0S31.1,7.7,31.1,17.3V56
			C31.1,65.6,38.8,73.3,48.3,73.3z"/>
		<path class="st0" d="M76.1,45.7h-3.4c-1.1,0-2,0.9-2,2v7c0,12.3-10,22.3-22.3,22.3S26,67,26,54.7v-7c0-1.1-0.9-2-2-2h-3.4
			c-1.1,0-2,0.9-2,2v7c0,14.7,11.4,27.7,26,29.5v5H29.3c-1.1,0-2,0.9-2,2v3.4c0,1.1,0.9,2,2,2h38.1c1.1,0,2-0.9,2-2v-3.4
			c0-1.1-0.9-2-2-2H52.1v-5c14.6-1.8,26-14.8,26-29.5v-7C78.1,46.6,77.2,45.7,76.1,45.7z"/>
	</g>
</g>
</svg>
